<?xml version="1.0" standalone="no"?>
<!DOCTYPE svg PUBLIC "-//W3C//DTD SVG 20010904//EN"
 "http://www.w3.org/TR/2001/REC-SVG-20010904/DTD/svg10.dtd">
<svg version="1.0" xmlns="http://www.w3.org/2000/svg"
 width="192.000000pt" height="192.000000pt" viewBox="0 0 192.000000 192.000000"
 preserveAspectRatio="xMidYMid meet">

<g transform="translate(0.000000,192.000000) scale(0.100000,-0.100000)"
fill="#000000" stroke="none">
<path d="M793 1905 c-129 -23 -268 -80 -380 -156 -80 -54 -224 -208 -277 -297
-149 -250 -176 -571 -70 -841 73 -185 235 -376 402 -475 251 -149 571 -176
841 -70 185 73 376 235 475 402 149 251 176 571 70 841 -73 185 -235 376 -402
475 -193 114 -442 160 -659 121z m291 -360 c112 -24 210 -78 296 -165 87 -86
132 -164 160 -276 25 -98 25 -190 0 -288 -29 -114 -73 -190 -160 -276 -127
-128 -263 -179 -470 -180 l-105 0 -112 112 -113 113 0 107 c0 96 2 108 19 118
12 6 97 10 206 10 206 0 226 5 266 62 31 43 31 113 0 156 -38 54 -65 62 -215
62 l-135 0 -68 59 c-38 32 -92 83 -120 114 l-53 56 0 109 c0 60 3 112 7 115 3
4 124 7 267 7 190 0 280 -4 330 -15z"/>
<path d="M664 1430 l73 -70 129 0 c71 0 149 -5 173 -11 117 -27 227 -116 279
-226 24 -52 27 -70 27 -163 0 -99 -2 -110 -33 -172 -53 -107 -158 -191 -274
-218 -24 -5 -76 -10 -115 -10 l-73 0 0 -71 0 -72 108 6 c170 9 279 56 387 168
162 167 198 396 95 605 -72 147 -225 264 -384 293 -33 6 -151 11 -262 11
l-202 0 72 -70z"/>
<path d="M540 1409 l0 -55 75 -74 75 -74 -1 59 -1 60 -74 69 -74 70 0 -55z"/>
<path d="M750 1237 l0 -65 123 -3 c108 -4 129 -7 172 -30 147 -75 147 -283 1
-358 -45 -23 -65 -26 -198 -31 l-149 -5 71 -64 71 -64 98 5 c118 6 188 34 254
102 65 66 89 125 95 224 4 80 3 86 -32 157 -41 82 -90 130 -172 167 -41 19
-71 23 -191 26 l-143 4 0 -65z"/>
<path d="M640 664 c0 -48 2 -51 75 -124 l75 -74 0 55 c0 53 -2 56 -52 105 -29
27 -63 58 -75 68 l-23 19 0 -49z"/>
</g>
</svg>
